<svg fill="none" height="19" viewBox="0 0 19 19" width="19" xmlns="http://www.w3.org/2000/svg"><path clip-rule="evenodd" d="m8.5 17c4.6944 0 8.5-3.8056 8.5-8.5 0-4.69442-3.8056-8.5-8.5-8.5-4.69442 0-8.5 3.80558-8.5 8.5 0 4.6944 3.80558 8.5 8.5 8.5z" fill-rule="evenodd" stroke="#db0011" transform="translate(1 1)"/><path d="m2.37733 6.141v-.77c-.055-.638.187-.682.968-1.496.616-.594 1.133-1.089 1.133-2.013 0-1.342-1.078-1.969001-2.321-1.969001-.407 0-.814.0330007-1.209997.1540005v.6709995c.329997-.098999.681997-.165 1.033997-.165.902 0 1.782.297001 1.782 1.331001 0 1.386-2.013 2.024-2.046 3.069v1.188zm-.77.913v.946h.88v-.946z" fill="#db0011" transform="translate(7 5)"/></svg>