<svg width="19" height="19" viewBox="0 0 19 19" fill="none" xmlns="http://www.w3.org/2000/svg">
<path fill-rule="evenodd" clip-rule="evenodd" d="M8.5 17C13.1944 17 17 13.1944 17 8.5C17 3.80558 13.1944 0 8.5 0C3.80558 0 0 3.80558 0 8.5C0 13.1944 3.80558 17 8.5 17Z" transform="translate(1 1)" stroke="#767676"/>
<path d="M2.37733 6.141V5.371C2.32233 4.733 2.56433 4.689 3.34533 3.875C3.96133 3.281 4.47833 2.786 4.47833 1.862C4.47833 0.52 3.40033 -0.107001 2.15733 -0.107001C1.75033 -0.107001 1.34333 -0.0740003 0.947333 0.0469995V0.717999C1.27733 0.619 1.62933 0.552999 1.98133 0.552999C2.88333 0.552999 3.76333 0.85 3.76333 1.884C3.76333 3.27 1.75033 3.908 1.71733 4.953V6.141H2.37733ZM1.60733 7.054V8H2.48733V7.054H1.60733Z" transform="translate(7 5)" fill="#767676"/>
</svg>
